<mxfile host="app.diagrams.net" modified="2022-11-23T05:27:34.340Z" agent="5.0 (Windows NT 10.0; Win64; x64) AppleWebKit/537.36 (KHTML, like Gecko) Chrome/107.0.0.0 Safari/537.36" etag="PCZ38EfGTVTq5bDhqg63" version="20.5.3" type="github">
  <diagram id="1mGmprmv3LAjQ3Nor6AY" name="Page-1">
    <mxGraphModel dx="1038" dy="579" grid="1" gridSize="10" guides="1" tooltips="1" connect="1" arrows="1" fold="1" page="1" pageScale="1" pageWidth="850" pageHeight="1100" math="0" shadow="0">
      <root>
        <mxCell id="0" />
        <mxCell id="1" parent="0" />
        <mxCell id="B8mBXZfF5vn8SUfsvBl8-7" value="" style="html=1;verticalAlign=bottom;startArrow=none;startFill=1;endArrow=open;startSize=6;endSize=8;rounded=0;strokeWidth=3;" edge="1" parent="1" source="B8mBXZfF5vn8SUfsvBl8-24">
          <mxGeometry width="80" relative="1" as="geometry">
            <mxPoint x="190" y="300" as="sourcePoint" />
            <mxPoint x="650" y="300" as="targetPoint" />
          </mxGeometry>
        </mxCell>
        <mxCell id="B8mBXZfF5vn8SUfsvBl8-8" value="&lt;b&gt;&lt;font style=&quot;font-size: 15px;&quot;&gt;Master&lt;/font&gt;&lt;/b&gt;" style="text;html=1;resizable=0;autosize=1;align=center;verticalAlign=middle;points=[];fillColor=none;strokeColor=none;rounded=0;" vertex="1" parent="1">
          <mxGeometry x="105" y="290" width="70" height="30" as="geometry" />
        </mxCell>
        <mxCell id="B8mBXZfF5vn8SUfsvBl8-10" value="" style="html=1;verticalAlign=bottom;startArrow=none;startFill=1;endArrow=open;startSize=6;endSize=8;rounded=0;strokeWidth=3;" edge="1" parent="1" source="B8mBXZfF5vn8SUfsvBl8-13">
          <mxGeometry width="80" relative="1" as="geometry">
            <mxPoint x="190" y="390" as="sourcePoint" />
            <mxPoint x="650" y="390" as="targetPoint" />
          </mxGeometry>
        </mxCell>
        <mxCell id="B8mBXZfF5vn8SUfsvBl8-11" value="&lt;b&gt;Dev&lt;/b&gt;" style="text;html=1;align=center;verticalAlign=middle;resizable=0;points=[];autosize=1;strokeColor=none;fillColor=none;fontSize=15;" vertex="1" parent="1">
          <mxGeometry x="115" y="380" width="50" height="30" as="geometry" />
        </mxCell>
        <mxCell id="B8mBXZfF5vn8SUfsvBl8-12" value="&lt;b&gt;&lt;font color=&quot;#ff0080&quot;&gt;Developement&lt;/font&gt;&lt;/b&gt;" style="text;html=1;align=center;verticalAlign=middle;resizable=0;points=[];autosize=1;strokeColor=none;fillColor=none;fontSize=15;" vertex="1" parent="1">
          <mxGeometry x="645" y="375" width="130" height="30" as="geometry" />
        </mxCell>
        <mxCell id="B8mBXZfF5vn8SUfsvBl8-13" value="" style="ellipse;whiteSpace=wrap;html=1;fontSize=15;" vertex="1" parent="1">
          <mxGeometry x="540" y="380" width="20" height="20" as="geometry" />
        </mxCell>
        <mxCell id="B8mBXZfF5vn8SUfsvBl8-14" value="" style="html=1;verticalAlign=bottom;startArrow=circle;startFill=1;endArrow=none;startSize=6;endSize=8;rounded=0;strokeWidth=3;" edge="1" parent="1" target="B8mBXZfF5vn8SUfsvBl8-13">
          <mxGeometry width="80" relative="1" as="geometry">
            <mxPoint x="190" y="390" as="sourcePoint" />
            <mxPoint x="650" y="390" as="targetPoint" />
          </mxGeometry>
        </mxCell>
        <mxCell id="B8mBXZfF5vn8SUfsvBl8-15" value="" style="curved=1;endArrow=classic;html=1;rounded=0;fontSize=15;strokeWidth=3;" edge="1" parent="1" source="B8mBXZfF5vn8SUfsvBl8-13">
          <mxGeometry width="50" height="50" relative="1" as="geometry">
            <mxPoint x="400" y="320" as="sourcePoint" />
            <mxPoint x="330" y="300" as="targetPoint" />
            <Array as="points">
              <mxPoint x="450" y="320" />
              <mxPoint x="300" y="360" />
            </Array>
          </mxGeometry>
        </mxCell>
        <mxCell id="B8mBXZfF5vn8SUfsvBl8-16" value="" style="ellipse;whiteSpace=wrap;html=1;fontSize=15;" vertex="1" parent="1">
          <mxGeometry x="320" y="290" width="20" height="20" as="geometry" />
        </mxCell>
        <mxCell id="B8mBXZfF5vn8SUfsvBl8-17" value="" style="html=1;verticalAlign=bottom;startArrow=circle;startFill=1;endArrow=none;startSize=6;endSize=8;rounded=0;strokeWidth=3;" edge="1" parent="1" target="B8mBXZfF5vn8SUfsvBl8-16">
          <mxGeometry width="80" relative="1" as="geometry">
            <mxPoint x="190" y="300" as="sourcePoint" />
            <mxPoint x="650" y="300" as="targetPoint" />
          </mxGeometry>
        </mxCell>
        <mxCell id="B8mBXZfF5vn8SUfsvBl8-18" value="" style="html=1;verticalAlign=bottom;startArrow=circle;startFill=1;endArrow=none;startSize=6;endSize=8;rounded=0;strokeWidth=3;" edge="1" parent="1">
          <mxGeometry width="80" relative="1" as="geometry">
            <mxPoint x="190" y="240" as="sourcePoint" />
            <mxPoint x="640" y="240" as="targetPoint" />
          </mxGeometry>
        </mxCell>
        <mxCell id="B8mBXZfF5vn8SUfsvBl8-19" value="" style="html=1;verticalAlign=bottom;startArrow=none;startFill=1;endArrow=open;startSize=6;endSize=8;rounded=0;" edge="1" parent="1" source="B8mBXZfF5vn8SUfsvBl8-20">
          <mxGeometry width="80" relative="1" as="geometry">
            <mxPoint x="335" y="240" as="sourcePoint" />
            <mxPoint x="645" y="240" as="targetPoint" />
          </mxGeometry>
        </mxCell>
        <mxCell id="B8mBXZfF5vn8SUfsvBl8-20" value="" style="ellipse;whiteSpace=wrap;html=1;fontSize=15;" vertex="1" parent="1">
          <mxGeometry x="330" y="230" width="20" height="20" as="geometry" />
        </mxCell>
        <mxCell id="B8mBXZfF5vn8SUfsvBl8-21" value="" style="html=1;verticalAlign=bottom;startArrow=none;startFill=1;endArrow=none;startSize=6;endSize=8;rounded=0;" edge="1" parent="1" target="B8mBXZfF5vn8SUfsvBl8-20">
          <mxGeometry width="80" relative="1" as="geometry">
            <mxPoint x="330" y="240" as="sourcePoint" />
            <mxPoint x="645" y="240" as="targetPoint" />
          </mxGeometry>
        </mxCell>
        <mxCell id="B8mBXZfF5vn8SUfsvBl8-23" value="" style="curved=1;endArrow=classic;html=1;rounded=0;fontSize=15;exitX=1;exitY=1;exitDx=0;exitDy=0;strokeWidth=3;" edge="1" parent="1" source="B8mBXZfF5vn8SUfsvBl8-20">
          <mxGeometry width="50" height="50" relative="1" as="geometry">
            <mxPoint x="370" y="290" as="sourcePoint" />
            <mxPoint x="460" y="300" as="targetPoint" />
            <Array as="points">
              <mxPoint x="420" y="290" />
              <mxPoint x="370" y="240" />
            </Array>
          </mxGeometry>
        </mxCell>
        <mxCell id="B8mBXZfF5vn8SUfsvBl8-24" value="" style="ellipse;whiteSpace=wrap;html=1;fontSize=15;" vertex="1" parent="1">
          <mxGeometry x="460" y="290" width="20" height="20" as="geometry" />
        </mxCell>
        <mxCell id="B8mBXZfF5vn8SUfsvBl8-25" value="" style="html=1;verticalAlign=bottom;startArrow=none;startFill=1;endArrow=none;startSize=6;endSize=8;rounded=0;strokeWidth=3;" edge="1" parent="1" source="B8mBXZfF5vn8SUfsvBl8-16" target="B8mBXZfF5vn8SUfsvBl8-24">
          <mxGeometry width="80" relative="1" as="geometry">
            <mxPoint x="340" y="300" as="sourcePoint" />
            <mxPoint x="650" y="300" as="targetPoint" />
          </mxGeometry>
        </mxCell>
        <mxCell id="B8mBXZfF5vn8SUfsvBl8-26" value="&lt;b&gt;HotFix&lt;/b&gt;" style="text;html=1;align=center;verticalAlign=middle;resizable=0;points=[];autosize=1;strokeColor=none;fillColor=none;fontSize=15;" vertex="1" parent="1">
          <mxGeometry x="105" y="220" width="70" height="30" as="geometry" />
        </mxCell>
        <mxCell id="B8mBXZfF5vn8SUfsvBl8-27" value="&lt;b&gt;&lt;font color=&quot;#ff0080&quot;&gt;Pie/Stage/Prod&lt;/font&gt;&lt;/b&gt;" style="text;html=1;align=center;verticalAlign=middle;resizable=0;points=[];autosize=1;strokeColor=none;fillColor=none;fontSize=15;" vertex="1" parent="1">
          <mxGeometry x="640" y="225" width="130" height="30" as="geometry" />
        </mxCell>
        <mxCell id="B8mBXZfF5vn8SUfsvBl8-28" value="&lt;b&gt;&lt;font color=&quot;#ff0080&quot;&gt;Pie/Stage/Prod&lt;/font&gt;&lt;/b&gt;" style="text;html=1;align=center;verticalAlign=middle;resizable=0;points=[];autosize=1;strokeColor=none;fillColor=none;fontSize=15;" vertex="1" parent="1">
          <mxGeometry x="645" y="290" width="130" height="30" as="geometry" />
        </mxCell>
        <mxCell id="B8mBXZfF5vn8SUfsvBl8-30" value="1.0-Dev" style="text;html=1;align=center;verticalAlign=middle;resizable=0;points=[];autosize=1;strokeColor=none;fillColor=none;fontSize=15;fontColor=#33001A;" vertex="1" parent="1">
          <mxGeometry x="510" y="420" width="80" height="30" as="geometry" />
        </mxCell>
        <mxCell id="B8mBXZfF5vn8SUfsvBl8-31" value="&lt;span style=&quot;color: rgb(51, 0, 26); font-family: Helvetica; font-size: 15px; font-style: normal; font-variant-ligatures: normal; font-variant-caps: normal; font-weight: 400; letter-spacing: normal; orphans: 2; text-align: center; text-indent: 0px; text-transform: none; widows: 2; word-spacing: 0px; -webkit-text-stroke-width: 0px; background-color: rgb(248, 249, 250); text-decoration-thickness: initial; text-decoration-style: initial; text-decoration-color: initial; float: none; display: inline !important;&quot;&gt;1.0&lt;/span&gt;" style="text;whiteSpace=wrap;html=1;fontSize=15;fontColor=#33001A;" vertex="1" parent="1">
          <mxGeometry x="285" y="300" width="90" height="40" as="geometry" />
        </mxCell>
        <mxCell id="B8mBXZfF5vn8SUfsvBl8-32" value="&lt;span style=&quot;color: rgb(51, 0, 26); font-family: Helvetica; font-size: 15px; font-style: normal; font-variant-ligatures: normal; font-variant-caps: normal; font-weight: 400; letter-spacing: normal; orphans: 2; text-align: center; text-indent: 0px; text-transform: none; widows: 2; word-spacing: 0px; -webkit-text-stroke-width: 0px; background-color: rgb(248, 249, 250); text-decoration-thickness: initial; text-decoration-style: initial; text-decoration-color: initial; float: none; display: inline !important;&quot;&gt;1.0.1&lt;/span&gt;" style="text;whiteSpace=wrap;html=1;fontSize=15;fontColor=#33001A;" vertex="1" parent="1">
          <mxGeometry x="360" y="210" width="90" height="40" as="geometry" />
        </mxCell>
        <mxCell id="B8mBXZfF5vn8SUfsvBl8-33" value="&lt;span style=&quot;color: rgb(51, 0, 26); font-family: Helvetica; font-size: 15px; font-style: normal; font-variant-ligatures: normal; font-variant-caps: normal; font-weight: 400; letter-spacing: normal; orphans: 2; text-align: center; text-indent: 0px; text-transform: none; widows: 2; word-spacing: 0px; -webkit-text-stroke-width: 0px; background-color: rgb(248, 249, 250); text-decoration-thickness: initial; text-decoration-style: initial; text-decoration-color: initial; float: none; display: inline !important;&quot;&gt;1.0.1&lt;/span&gt;" style="text;whiteSpace=wrap;html=1;fontSize=15;fontColor=#33001A;" vertex="1" parent="1">
          <mxGeometry x="480" y="300" width="90" height="40" as="geometry" />
        </mxCell>
      </root>
    </mxGraphModel>
  </diagram>
</mxfile>
